<?xml version="1.0" standalone="no"?>
<!DOCTYPE svg PUBLIC "-//W3C//DTD SVG 20010904//EN"
 "http://www.w3.org/TR/2001/REC-SVG-20010904/DTD/svg10.dtd">
<svg version="1.0" xmlns="http://www.w3.org/2000/svg"
 width="100.000000pt" height="100.000000pt" viewBox="0 0 100.000000 100.000000"
 preserveAspectRatio="xMidYMid meet">
<metadata>
Created by potrace 1.10, written by Peter Selinger 2001-2011
</metadata>
<g transform="translate(0.000000,100.000000) scale(0.050000,-0.050000)"
fill="#000000" stroke="none">
<path d="M794 1632 c-233 -86 -394 -302 -394 -527 0 -46 -9 -65 -32 -65 -112
0 -208 -157 -208 -340 0 -243 101 -350 330 -350 l140 0 5 345 c5 295 1 348
-25 358 -40 15 -37 99 8 197 143 311 621 311 764 0 45 -98 48 -182 8 -197 -26
-10 -30 -63 -25 -358 l5 -345 140 0 c229 0 330 107 330 350 0 181 -96 340
-205 340 -21 0 -33 32 -40 107 -38 366 -450 616 -801 485z"/>
<path d="M765 1310 c-36 -15 -65 -41 -65 -58 0 -44 32 -56 60 -22 28 34 92 40
110 10 22 -35 70 -22 70 19 0 73 -75 95 -175 51z"/>
<path d="M1055 1298 c-75 -43 -32 -99 44 -58 28 14 50 9 90 -23 73 -57 107
-23 50 50 -44 56 -119 69 -184 31z"/>
<path d="M780 1071 c0 -122 23 -176 60 -138 28 28 -1 267 -33 267 -20 0 -27
-33 -27 -129z"/>
<path d="M1070 1181 c-33 -54 -36 -241 -4 -241 36 0 49 35 58 158 6 85 -24
131 -54 83z"/>
<path d="M692 794 c-89 -65 10 -268 158 -325 238 -91 430 -10 430 180 l0 129
-235 7 c-129 4 -253 14 -275 22 -24 9 -55 4 -78 -13z"/>
</g>
</svg>
